<?xml version="1.0" encoding="UTF-8"?> <!-- Generator: Adobe Illustrator 23.1.0, SVG Export Plug-In . SVG Version: 6.00 Build 0) --> <svg xmlns="http://www.w3.org/2000/svg" xmlns:xlink="http://www.w3.org/1999/xlink" version="1.1" x="0px" y="0px" viewBox="0 0 425.197 425.197" style="enable-background:new 0 0 425.197 425.197;" xml:space="preserve"> <style type="text/css"> .st0{clip-path:url(#SVGID_2_);} .st1{fill:#EEC97B;} .st2{fill:#CC986F;} .st3{fill:#FFFFFF;} .st4{fill:#52514F;} .st5{fill:none;stroke:#000000;stroke-width:2;stroke-linecap:round;stroke-linejoin:round;stroke-miterlimit:10;} .st6{clip-path:url(#SVGID_4_);} .st7{clip-path:url(#SVGID_6_);} .st8{fill:#FFFFFF;stroke:#000000;stroke-width:2;stroke-linecap:round;stroke-linejoin:round;stroke-miterlimit:10;} .st9{fill:#52514F;stroke:#000000;stroke-width:2;stroke-linecap:round;stroke-linejoin:round;stroke-miterlimit:10;} .st10{clip-path:url(#SVGID_8_);} .st11{clip-path:url(#SVGID_10_);} .st12{fill:none;stroke:#000000;stroke-width:0.5;stroke-linecap:round;stroke-linejoin:round;} .st13{clip-path:url(#SVGID_12_);} .st14{clip-path:url(#SVGID_14_);} .st15{fill:#515151;} .st16{fill:none;stroke:#000000;stroke-width:2;stroke-linejoin:round;stroke-miterlimit:10;} .st17{clip-path:url(#SVGID_16_);} .st18{clip-path:url(#SVGID_18_);} .st19{clip-path:url(#SVGID_20_);} .st20{clip-path:url(#SVGID_22_);} .st21{clip-path:url(#SVGID_24_);} .st22{clip-path:url(#SVGID_26_);} .st23{fill:#010202;} .st24{stroke:#000000;stroke-linecap:round;stroke-linejoin:round;stroke-miterlimit:10;} .st25{clip-path:url(#SVGID_28_);} .st26{clip-path:url(#SVGID_30_);} .st27{clip-path:url(#SVGID_32_);} .st28{clip-path:url(#SVGID_34_);} .st29{clip-path:url(#SVGID_36_);} </style> <g id="Слой_1"> </g> <g id="Слой_3"> </g> <g id="Слой_4"> </g> <g id="Слой_5"> </g> <g id="Слой_6"> </g> <g id="Слой_7"> </g> <g id="Слой_8"> </g> <g id="Слой_9"> <g> <g> <defs> <circle id="SVGID_31_" cx="212.598" cy="212.598" r="212.598"></circle> </defs> <clipPath id="SVGID_2_"> <use xlink:href="#SVGID_31_" style="overflow:visible;"></use> </clipPath> <g class="st0"> <path class="st1" d="M66.854,199.544v-8.86c71.49-25.53,117.1-55.8,145.75-115.61l93.456,93.455 c15.675,8.049,33.038,15.278,52.294,22.155v1.792l63.92,55.369c1.913-11.466,2.925-23.237,2.925-35.246 C425.199,95.184,330.015,0,212.6,0C95.185,0,0.002,95.184,0.002,212.598c0,107.644,80.006,196.589,183.795,210.649 L66.854,306.304V199.544z"></path> <path class="st2" d="M422.274,247.845l-63.92-55.369v-1.792c-19.256-6.877-36.619-14.105-52.294-22.155l-93.456-93.455 c-28.65,59.81-74.26,90.08-145.75,115.61v8.86v106.76l116.943,116.943c9.421,1.276,19.033,1.95,28.803,1.95 C318.006,425.197,405.479,348.483,422.274,247.845z"></path> </g> </g> <g> <g id="XMLID_7_"> <g> <rect x="353.816" y="199.544" class="st4" width="4.53" height="106.76"></rect> <polygon class="st4" points="358.346,190.684 358.346,199.544 353.816,199.544 269.236,199.544 264.716,199.544 160.486,199.544 155.956,199.544 71.376,199.544 66.856,199.544 66.856,190.684 "></polygon> <path class="st3" d="M358.346,190.684H66.856c71.49-25.53,117.09-55.8,145.74-115.61 C241.246,134.884,286.856,165.154,358.346,190.684z"></path> <path class="st3" d="M353.816,199.544v106.76h-84.58v-106.76H353.816z M337.996,294.654v-19.12v-19.12v-19.12v-2.73 c0-7.08-2.8-13.49-7.36-18.21c-4.76-4.94-11.45-8.01-18.85-8.01h-1.2h-1.2c-7.4,0-14.08,3.07-18.85,8.01 c-4.55,4.72-7.36,11.13-7.36,18.21v2.73v19.12v19.12v19.12h18.27h18.28H337.996z"></path> <rect x="319.726" y="275.534" class="st3" width="18.27" height="19.12"></rect> <rect x="319.726" y="256.414" class="st3" width="18.27" height="19.12"></rect> <rect x="319.726" y="237.294" class="st3" width="18.27" height="19.12"></rect> <path class="st3" d="M337.996,234.564v2.73h-18.27c0-2.64-1.02-5.03-2.68-6.76l13.1-13.71l0.49-0.47 C335.196,221.074,337.996,227.484,337.996,234.564z"></path> <path class="st3" d="M330.636,216.354l-0.49,0.47l-13.1,13.71c-1.65-1.73-3.93-2.8-6.46-2.8v-19.39h1.2 C319.186,208.344,325.876,211.414,330.636,216.354z"></path> <rect x="301.446" y="275.534" class="st3" width="18.28" height="19.12"></rect> <rect x="301.446" y="256.414" class="st3" width="18.28" height="19.12"></rect> <rect x="301.446" y="237.294" class="st3" width="18.28" height="19.12"></rect> <path class="st3" d="M319.726,237.294h-18.28c0-2.64,1.02-5.03,2.68-6.76c1.65-1.73,3.93-2.8,6.46-2.8s4.81,1.07,6.46,2.8 C318.706,232.264,319.726,234.654,319.726,237.294z"></path> <path class="st3" d="M310.586,208.344v19.39c-2.53,0-4.81,1.07-6.46,2.8l-13.1-13.71l-0.49-0.47 c4.77-4.94,11.45-8.01,18.85-8.01H310.586z"></path> <path class="st3" d="M291.026,216.824l13.1,13.71c-1.66,1.73-2.68,4.12-2.68,6.76h-18.27v-2.73c0-7.08,2.81-13.49,7.36-18.21 L291.026,216.824z"></path> <rect x="283.176" y="275.534" class="st3" width="18.27" height="19.12"></rect> <rect x="283.176" y="256.414" class="st3" width="18.27" height="19.12"></rect> <rect x="283.176" y="237.294" class="st3" width="18.27" height="19.12"></rect> <polygon class="st4" points="269.236,199.544 269.236,306.304 264.716,306.304 264.716,286.854 264.716,267.234 264.716,247.604 264.716,227.974 264.716,208.344 264.716,199.544 "></polygon> <rect x="248.096" y="267.234" class="st3" width="16.62" height="19.62"></rect> <rect x="248.096" y="247.604" class="st3" width="16.62" height="19.63"></rect> <rect x="248.096" y="227.974" class="st3" width="16.62" height="19.63"></rect> <rect x="248.096" y="208.344" class="st3" width="16.62" height="19.63"></rect> <path class="st3" d="M264.716,286.854v19.45h-49.85v-19.45h16.61h16.62H264.716z M260.466,302.054v-10.95h-41.36v10.95H260.466 z"></path> <polygon class="st3" points="264.716,199.544 264.716,208.344 248.096,208.344 231.476,208.344 214.866,208.344 210.336,208.344 193.716,208.344 177.106,208.344 160.486,208.344 160.486,199.544 "></polygon> <rect x="219.106" y="291.104" class="st3" width="41.36" height="10.95"></rect> <rect x="231.476" y="267.234" class="st3" width="16.62" height="19.62"></rect> <rect x="231.476" y="247.604" class="st3" width="16.62" height="19.63"></rect> <rect x="231.476" y="227.974" class="st3" width="16.62" height="19.63"></rect> <rect x="231.476" y="208.344" class="st3" width="16.62" height="19.63"></rect> <rect x="214.866" y="267.234" class="st3" width="16.61" height="19.62"></rect> <rect x="214.866" y="247.604" class="st3" width="16.61" height="19.63"></rect> <rect x="214.866" y="227.974" class="st3" width="16.61" height="19.63"></rect> <rect x="214.866" y="208.344" class="st3" width="16.61" height="19.63"></rect> <polygon class="st3" points="214.866,286.854 214.866,306.304 210.336,306.304 210.336,286.854 210.336,267.234 210.336,247.604 210.336,227.974 210.336,208.344 214.866,208.344 214.866,227.974 214.866,247.604 214.866,267.234 "></polygon> <path class="st3" d="M210.336,286.854v19.45h-49.85v-19.45h16.62h16.61H210.336z M206.086,302.054v-10.95h-41.35v10.95H206.086 z"></path> <rect x="193.716" y="267.234" class="st3" width="16.62" height="19.62"></rect> <rect x="193.716" y="247.604" class="st3" width="16.62" height="19.63"></rect> <rect x="193.716" y="227.974" class="st3" width="16.62" height="19.63"></rect> <rect x="193.716" y="208.344" class="st3" width="16.62" height="19.63"></rect> <rect x="164.736" y="291.104" class="st3" width="41.35" height="10.95"></rect> <rect x="177.106" y="267.234" class="st3" width="16.61" height="19.62"></rect> <rect x="177.106" y="247.604" class="st3" width="16.61" height="19.63"></rect> <rect x="177.106" y="227.974" class="st3" width="16.61" height="19.63"></rect> <rect x="177.106" y="208.344" class="st3" width="16.61" height="19.63"></rect> <rect x="160.486" y="267.234" class="st3" width="16.62" height="19.62"></rect> <rect x="160.486" y="247.604" class="st3" width="16.62" height="19.63"></rect> <rect x="160.486" y="227.974" class="st3" width="16.62" height="19.63"></rect> <rect x="160.486" y="208.344" class="st3" width="16.62" height="19.63"></rect> <polygon class="st4" points="160.486,267.234 160.486,286.854 160.486,306.304 155.956,306.304 155.956,199.544 160.486,199.544 160.486,208.344 160.486,227.974 160.486,247.604 "></polygon> <path class="st3" d="M155.956,199.544v106.76h-84.58v-106.76H155.956z M142.026,294.654v-19.12v-19.12v-19.12v-2.73 c0-7.08-2.8-13.49-7.37-18.21c-4.76-4.94-11.45-8.01-18.85-8.01h-1.19h-1.2c-7.4,0-14.09,3.07-18.85,8.01 c-4.56,4.72-7.37,11.13-7.37,18.21v2.73v19.12v19.12v19.12h18.28h18.27H142.026z"></path> <rect x="123.746" y="275.534" class="st3" width="18.28" height="19.12"></rect> <rect x="123.746" y="256.414" class="st3" width="18.28" height="19.12"></rect> <rect x="123.746" y="237.294" class="st3" width="18.28" height="19.12"></rect> <path class="st3" d="M142.026,234.564v2.73h-18.28c0-2.64-1.02-5.03-2.67-6.76l13.09-13.71l0.49-0.47 C139.226,221.074,142.026,227.484,142.026,234.564z"></path> <path class="st3" d="M115.806,208.344c7.4,0,14.09,3.07,18.85,8.01l-0.49,0.47l-13.09,13.71c-1.66-1.73-3.94-2.8-6.46-2.8 v-19.39H115.806z"></path> <rect x="105.476" y="275.534" class="st3" width="18.27" height="19.12"></rect> <rect x="105.476" y="256.414" class="st3" width="18.27" height="19.12"></rect> <rect x="105.476" y="237.294" class="st3" width="18.27" height="19.12"></rect> <path class="st3" d="M123.746,237.294h-18.27c0-2.64,1.02-5.03,2.68-6.76c1.65-1.73,3.94-2.8,6.46-2.8 c2.52,0,4.8,1.07,6.46,2.8C122.726,232.264,123.746,234.654,123.746,237.294z"></path> <path class="st3" d="M114.616,208.344v19.39c-2.52,0-4.81,1.07-6.46,2.8h-0.01l-13.09-13.71l-0.49-0.47 c4.76-4.94,11.45-8.01,18.85-8.01H114.616z"></path> <path class="st3" d="M108.146,230.534h0.01c-1.66,1.73-2.68,4.12-2.68,6.76h-18.28v-2.73c0-7.08,2.81-13.49,7.37-18.21 l0.49,0.47L108.146,230.534z"></path> <rect x="87.196" y="275.534" class="st3" width="18.28" height="19.12"></rect> <rect x="87.196" y="256.414" class="st3" width="18.28" height="19.12"></rect> <rect x="87.196" y="237.294" class="st3" width="18.28" height="19.12"></rect> <rect x="66.856" y="199.544" class="st4" width="4.52" height="106.76"></rect> </g> <g> <path class="st16" d="M142.026,275.534v19.12h-18.28h-18.27h-18.28v-19.12v-19.12v-19.12v-2.73c0-7.08,2.81-13.49,7.37-18.21 c4.76-4.94,11.45-8.01,18.85-8.01h1.2h1.19c7.4,0,14.09,3.07,18.85,8.01c4.57,4.72,7.37,11.13,7.37,18.21v2.73v19.12V275.534z"></path> <polyline class="st16" points="105.476,294.654 105.476,275.534 105.476,256.414 105.476,237.294 "></polyline> <polyline class="st16" points="123.746,294.654 123.746,275.534 123.746,256.414 123.746,237.294 "></polyline> <polyline class="st16" points="142.026,275.534 123.746,275.534 105.476,275.534 87.196,275.534 "></polyline> <polyline class="st16" points="142.026,256.414 123.746,256.414 105.476,256.414 87.196,256.414 "></polyline> <polyline class="st16" points="210.336,286.854 193.716,286.854 177.106,286.854 160.486,286.854 "></polyline> <polyline class="st16" points="177.106,286.854 177.106,267.234 177.106,247.604 177.106,227.974 177.106,208.344 "></polyline> <polyline class="st16" points="193.716,286.854 193.716,267.234 193.716,247.604 193.716,227.974 193.716,208.344 "></polyline> <polyline class="st16" points="210.336,267.234 193.716,267.234 177.106,267.234 160.486,267.234 "></polyline> <polyline class="st16" points="210.336,247.604 193.716,247.604 177.106,247.604 160.486,247.604 "></polyline> <polyline class="st16" points="210.336,227.974 193.716,227.974 177.106,227.974 160.486,227.974 "></polyline> <polyline class="st16" points="210.336,208.344 193.716,208.344 177.106,208.344 160.486,208.344 "></polyline> <polyline class="st16" points="142.026,237.294 123.746,237.294 105.476,237.294 87.196,237.294 "></polyline> <path class="st16" d="M105.476,237.294c0-2.64,1.02-5.03,2.68-6.76c1.65-1.73,3.94-2.8,6.46-2.8c2.52,0,4.8,1.07,6.46,2.8 c1.65,1.73,2.67,4.12,2.67,6.76"></path> <line class="st16" x1="114.616" y1="227.734" x2="114.616" y2="208.344"></line> <line class="st16" x1="121.076" y1="230.534" x2="134.166" y2="216.824"></line> <line class="st16" x1="108.146" y1="230.534" x2="95.056" y2="216.824"></line> <rect x="164.736" y="291.104" class="st16" width="41.35" height="10.95"></rect> <rect x="219.106" y="291.104" class="st16" width="41.36" height="10.95"></rect> <line class="st16" x1="71.376" y1="199.544" x2="71.376" y2="306.304"></line> <polyline class="st16" points="160.486,199.544 160.486,208.344 160.486,227.974 160.486,247.604 160.486,267.234 160.486,286.854 160.486,306.304 "></polyline> <line class="st16" x1="155.956" y1="306.304" x2="155.956" y2="199.544"></line> <path class="st16" d="M283.176,275.534v19.12h18.27h18.28h18.27v-19.12v-19.12v-19.12v-2.73c0-7.08-2.8-13.49-7.36-18.21 c-4.76-4.94-11.45-8.01-18.85-8.01h-1.2h-1.2c-7.4,0-14.08,3.07-18.85,8.01c-4.55,4.72-7.36,11.13-7.36,18.21v2.73v19.12 V275.534z"></path> <polyline class="st16" points="319.726,294.654 319.726,275.534 319.726,256.414 319.726,237.294 "></polyline> <polyline class="st16" points="301.446,294.654 301.446,275.534 301.446,256.414 301.446,237.294 "></polyline> <polyline class="st16" points="283.176,275.534 301.446,275.534 319.726,275.534 337.996,275.534 "></polyline> <polyline class="st16" points="283.176,256.414 301.446,256.414 319.726,256.414 337.996,256.414 "></polyline> <polyline class="st16" points="214.866,286.854 231.476,286.854 248.096,286.854 264.716,286.854 "></polyline> <polyline class="st16" points="248.096,286.854 248.096,267.234 248.096,247.604 248.096,227.974 248.096,208.344 "></polyline> <polyline class="st16" points="231.476,286.854 231.476,267.234 231.476,247.604 231.476,227.974 231.476,208.344 "></polyline> <polyline class="st16" points="214.866,267.234 231.476,267.234 248.096,267.234 264.716,267.234 "></polyline> <polyline class="st16" points="214.866,247.604 231.476,247.604 248.096,247.604 264.716,247.604 "></polyline> <polyline class="st16" points="214.866,227.974 231.476,227.974 248.096,227.974 264.716,227.974 "></polyline> <polyline class="st16" points="214.866,208.344 231.476,208.344 248.096,208.344 264.716,208.344 "></polyline> <polyline class="st16" points="283.176,237.294 301.446,237.294 319.726,237.294 337.996,237.294 "></polyline> <path class="st16" d="M319.726,237.294c0-2.64-1.02-5.03-2.68-6.76c-1.65-1.73-3.93-2.8-6.46-2.8s-4.81,1.07-6.46,2.8 c-1.66,1.73-2.68,4.12-2.68,6.76"></path> <line class="st16" x1="310.586" y1="227.734" x2="310.586" y2="208.344"></line> <line class="st16" x1="304.126" y1="230.534" x2="291.026" y2="216.824"></line> <line class="st16" x1="317.046" y1="230.534" x2="330.146" y2="216.824"></line> <line class="st16" x1="353.816" y1="199.544" x2="353.816" y2="306.304"></line> <polyline class="st16" points="264.716,199.544 264.716,208.344 264.716,227.974 264.716,247.604 264.716,267.234 264.716,286.854 264.716,306.304 "></polyline> <line class="st16" x1="269.236" y1="306.304" x2="269.236" y2="199.544"></line> <polyline class="st16" points="210.336,306.304 210.336,286.854 210.336,267.234 210.336,247.604 210.336,227.974 210.336,208.344 214.866,208.344 214.866,227.974 214.866,247.604 214.866,267.234 214.866,286.854 214.866,306.304 "></polyline> <polyline class="st16" points="358.346,199.544 358.346,306.304 353.816,306.304 269.236,306.304 264.716,306.304 214.866,306.304 210.336,306.304 160.486,306.304 155.956,306.304 71.376,306.304 66.856,306.304 66.856,199.544 "></polyline> <polygon class="st16" points="358.346,199.544 353.816,199.544 269.236,199.544 264.716,199.544 160.486,199.544 155.956,199.544 71.376,199.544 66.856,199.544 66.856,190.684 358.346,190.684 "></polygon> <path class="st5" d="M212.596,75.074c-28.65,59.81-74.25,90.08-145.74,115.61"></path> <path class="st5" d="M212.596,75.074c28.65,59.81,74.26,90.08,145.75,115.61"></path> </g> </g> </g> </g> </g> <g id="Слой_10"> </g> </svg> 